<svg xmlns="http://www.w3.org/2000/svg" viewBox="0 0 96 96" role="img" aria-labelledby="title desc">
  <title id="title">EdgeLog symbol</title>
  <desc id="desc">A geometric E merged with an ascending analytics line and bars.</desc>
  <defs>
    <linearGradient id="brand" x1="16" y1="82" x2="82" y2="14" gradientUnits="userSpaceOnUse">
      <stop stop-color="#7C3AED"/>
      <stop offset=".48" stop-color="#2563FF"/>
      <stop offset="1" stop-color="#00D4FF"/>
    </linearGradient>
  </defs>
  <path fill="url(#brand)" fill-rule="evenodd" d="M17 24 29 12h52L69 24H34l-5 5v13l9-9h28L54 45H41l-12 12v15l22-22h10l9 7 13-13v13L70 70l-9-7-5 5v16H44V76l-8 8H17V24Zm12 32 11-11H29v11Zm28 28V69l5-5 7 5v15H57Zm16 0V66l10-10v28H73Z"/>
</svg>